<?xml version="1.0" standalone="no"?>
<!DOCTYPE svg PUBLIC "-//W3C//DTD SVG 20010904//EN"
 "http://www.w3.org/TR/2001/REC-SVG-20010904/DTD/svg10.dtd">
<svg version="1.0" xmlns="http://www.w3.org/2000/svg"
 width="361.000000pt" height="361.000000pt" viewBox="0 0 361.000000 361.000000"
 preserveAspectRatio="xMidYMid meet">
<metadata>
Created by potrace 1.14, written by Peter Selinger 2001-2017
</metadata>
<g transform="translate(0.000000,361.000000) scale(0.100000,-0.100000)"
fill="#000000" stroke="none">
<path d="M1602 3504 c-122 -17 -298 -65 -420 -113 -264 -105 -450 -236 -660
-464 -97 -106 -259 -376 -307 -512 -9 -27 -21 -59 -25 -70 -19 -49 -31 -86
-51 -165 -11 -47 -22 -94 -24 -105 -1 -11 -6 -47 -11 -80 -10 -73 -11 -319 -1
-395 8 -66 15 -108 21 -135 2 -11 9 -42 15 -70 40 -178 153 -440 259 -599 159
-240 382 -428 677 -571 162 -79 267 -116 432 -151 187 -39 446 -38 638 3 39 8
81 17 95 19 53 10 269 88 350 126 277 131 498 322 671 578 59 88 65 98 124
220 84 171 126 297 162 484 27 144 24 442 -7 581 -5 22 -12 55 -15 74 -8 48
-73 246 -102 311 -166 375 -398 630 -758 832 -95 54 -265 125 -365 153 -220
63 -468 80 -698 49z m446 -118 c6 -7 -68 -17 -78 -11 -23 14 -7 24 32 20 23
-3 44 -7 46 -9z m-243 -30 c30 -14 55 -30 55 -36 0 -5 -15 -34 -33 -63 -18
-28 -37 -61 -43 -72 -9 -16 -26 -21 -90 -27 -214 -20 -421 -99 -607 -232 l-88
-63 -52 17 c-29 10 -84 21 -122 25 -38 4 -73 9 -77 11 -16 10 25 95 60 124 56
46 56 46 132 96 215 139 576 260 743 249 43 -2 88 -13 122 -29z m958 -253
c224 -156 398 -359 515 -599 31 -65 102 -244 102 -259 0 -2 -8 -1 -18 2 -10 2
-30 27 -45 54 -36 67 -60 111 -69 124 -88 124 -186 244 -281 340 -89 91 -127
137 -154 190 -20 39 -53 96 -75 128 -21 31 -36 57 -33 57 3 0 29 -16 58 -37z
m-800 -120 c51 -30 129 -84 175 -120 65 -51 82 -70 83 -91 11 -229 -12 -385
-103 -699 l-12 -41 -125 -48 c-69 -26 -159 -63 -199 -81 -39 -18 -74 -33 -77
-33 -3 0 -42 -18 -86 -40 -45 -22 -85 -40 -90 -40 -8 0 -173 123 -239 177 -8
7 -94 75 -190 150 l-175 138 3 45 c3 44 6 76 18 163 14 111 39 212 60 244 12
20 166 143 178 143 3 0 22 12 43 26 126 85 314 148 488 163 126 10 147 5 248
-56z m896 -275 c154 -153 263 -298 354 -468 41 -77 81 -183 72 -192 -2 -2 -6
-32 -10 -67 -4 -35 -11 -74 -16 -87 -4 -13 -7 -24 -4 -24 2 0 -1 -15 -6 -32
-6 -18 -12 -43 -15 -56 -2 -12 -13 -43 -23 -69 l-18 -47 -74 -17 c-41 -9 -165
-38 -277 -64 -111 -26 -204 -46 -205 -44 -2 2 -25 36 -52 74 -86 123 -181 229
-317 352 l-46 41 38 132 c22 73 37 137 34 141 -3 5 0 9 6 9 6 0 9 4 6 8 -3 4
-1 26 4 48 5 21 11 56 14 77 3 20 9 54 12 74 3 20 7 84 8 142 l2 106 49 13
c75 19 210 37 296 40 l76 2 92 -92z m-2573 -549 c4 -29 19 -94 35 -142 16 -49
27 -93 24 -97 -7 -11 -18 -157 -18 -235 0 -66 11 -207 18 -227 2 -7 7 -31 10
-53 7 -51 31 -144 56 -222 19 -57 19 -64 5 -92 -9 -16 -20 -32 -25 -35 -12 -8
-85 182 -121 313 -44 158 -58 275 -55 441 3 137 7 191 20 250 6 26 12 58 19
98 7 34 17 64 22 60 2 -2 6 -29 10 -59z m630 -47 c146 -112 510 -398 524 -411
12 -12 15 -50 16 -205 1 -201 6 -263 29 -361 10 -45 11 -62 2 -68 -93 -63
-394 -224 -498 -267 l-57 -23 -56 32 c-63 37 -169 117 -238 180 -39 36 -52 59
-81 140 -79 217 -111 381 -111 566 0 72 11 186 21 212 15 42 148 141 279 207
49 25 94 45 99 45 6 0 38 -21 71 -47z m2340 -662 c32 -80 50 -161 58 -264 2
-31 -8 -61 -49 -142 -117 -231 -307 -459 -430 -515 -98 -44 -225 -80 -305 -86
l-76 -5 -33 88 c-18 49 -38 103 -45 119 -7 17 -30 75 -51 129 -42 111 -43 109
25 183 93 100 220 288 272 403 l26 55 183 44 c409 97 372 90 387 69 8 -10 25
-45 38 -78z m-1614 -494 c65 -29 193 -73 230 -80 15 -2 31 -7 35 -9 5 -3 24
-8 43 -11 19 -3 53 -8 74 -12 22 -3 66 -6 97 -7 54 -1 57 -2 67 -31 6 -17 42
-114 81 -215 39 -101 71 -188 71 -192 0 -14 -103 -85 -178 -123 -39 -20 -115
-53 -169 -73 -81 -30 -113 -37 -183 -39 l-84 -2 -124 61 c-68 33 -201 90 -295
126 -195 75 -194 75 -246 210 -52 135 -66 114 137 213 97 48 220 114 272 147
52 33 100 60 107 61 7 0 36 -11 65 -24z"/>
</g>
</svg>
